<?xml version="1.0" standalone="no"?>
<!DOCTYPE svg PUBLIC "-//W3C//DTD SVG 20010904//EN"
 "http://www.w3.org/TR/2001/REC-SVG-20010904/DTD/svg10.dtd">
<svg version="1.0" xmlns="http://www.w3.org/2000/svg"
 width="1080.000000pt" height="1080.000000pt" viewBox="0 0 1080.000000 1080.000000"
 preserveAspectRatio="xMidYMid meet">
<metadata>
Created by potrace 1.14, written by Peter Selinger 2001-2017
</metadata>
<g transform="translate(0.000000,1080.000000) scale(0.100000,-0.100000)"
fill="#000000" stroke="none">
<path d="M4221 9919 c-161 -21 -373 -90 -547 -180 -550 -283 -956 -889 -956
-1429 -1 -151 12 -234 56 -363 82 -239 189 -357 605 -671 579 -435 2390 -1763
4284 -3140 l657 -478 0 -52 c1 -301 279 -538 573 -488 102 18 187 60 261 132
207 198 207 512 0 710 -71 68 -158 114 -249 131 -70 13 -183 6 -244 -16 l-43
-15 -347 252 c-1764 1281 -4075 2974 -4634 3396 -330 249 -376 303 -414 489
-20 97 -7 225 37 355 102 304 356 596 650 748 289 148 595 171 814 60 83 -41
785 -506 961 -636 416 -306 831 -638 960 -768 146 -148 237 -286 281 -431 22
-75 26 -276 6 -346 -13 -43 -17 -47 -51 -53 -119 -19 -273 -145 -333 -271
-138 -296 46 -643 369 -697 325 -54 613 231 566 559 -8 55 -23 100 -53 160
l-43 83 21 73 c71 244 52 522 -52 766 -102 240 -298 483 -566 702 -266 218
-728 570 -975 744 -207 146 -781 523 -848 557 -84 42 -247 95 -351 113 -94 16
-286 18 -395 4z"/>
<path d="M2103 7365 c-244 -66 -401 -306 -363 -553 46 -296 360 -490 638 -395
40 13 46 13 70 -3 112 -73 3549 -2585 4512 -3297 767 -568 774 -574 837 -734
24 -60 27 -81 27 -188 -1 -141 -21 -228 -84 -363 -68 -145 -145 -256 -265
-381 -194 -203 -396 -316 -666 -372 -171 -35 -358 -16 -489 50 -75 37 -736
476 -918 608 -300 219 -747 566 -915 711 -183 159 -312 340 -369 520 -25 81
-30 258 -10 339 13 48 16 52 50 58 54 10 154 60 204 101 116 97 178 231 178
385 0 222 -151 418 -365 474 -342 89 -670 -205 -615 -551 11 -67 56 -182 85
-214 12 -14 12 -23 -1 -65 -67 -221 -70 -447 -7 -665 13 -47 51 -139 83 -205
164 -330 374 -531 1205 -1155 275 -206 353 -260 800 -556 367 -244 454 -287
665 -330 131 -27 393 -25 526 4 525 114 976 461 1236 950 138 259 202 559 168
797 -15 107 -69 278 -112 355 -49 88 -123 183 -197 252 -115 109 -672 523
-2685 1996 -661 484 -1986 1449 -2343 1707 l-262 190 -1 66 c-1 213 -156 409
-365 464 -73 18 -182 18 -252 0z"/>
</g>
</svg>
