<?xml version="1.0" standalone="no"?>
<!DOCTYPE svg PUBLIC "-//W3C//DTD SVG 20010904//EN"
 "http://www.w3.org/TR/2001/REC-SVG-20010904/DTD/svg10.dtd">
<svg version="1.0" xmlns="http://www.w3.org/2000/svg"
 width="1080.000000pt" height="1080.000000pt" viewBox="0 0 1080.000000 1080.000000"
 preserveAspectRatio="xMidYMid meet">
<metadata>
Created by potrace 1.14, written by Peter Selinger 2001-2017
</metadata>
<g transform="translate(0.000000,1080.000000) scale(0.100000,-0.100000)"
fill="#000000" stroke="none">
<path d="M5317 10235 c-22 -7 -51 -24 -65 -37 -15 -12 -590 -585 -1278 -1273
-1238 -1237 -1251 -1251 -1266 -1305 -16 -58 -17 -83 -4 -140 26 -109 146
-196 258 -184 101 10 79 -11 1292 1203 l1150 1150 465 -466 c511 -512 506
-508 619 -506 104 2 185 61 223 163 24 65 22 124 -8 190 -30 68 -1127 1162
-1198 1196 -57 27 -129 31 -188 9z"/>
<path d="M7115 8456 c-102 -35 -165 -116 -172 -223 -5 -57 -1 -76 17 -116 18
-38 298 -323 1357 -1382 l1334 -1335 -284 -286 c-184 -185 -292 -301 -306
-329 -49 -99 -17 -231 72 -299 74 -56 184 -68 262 -28 62 31 807 779 834 837
26 56 29 126 7 193 -16 48 -113 147 -1457 1491 -1052 1052 -1451 1445 -1483
1460 -50 25 -136 33 -181 17z"/>
<path d="M5363 8229 c-24 -5 -50 -12 -60 -17 -30 -18 -1344 -1335 -1358 -1363
-24 -46 -29 -121 -10 -165 44 -107 172 -159 268 -109 21 11 298 280 617 599
l579 578 1177 -1176 1177 -1177 -106 -108 c-108 -109 -125 -135 -134 -207 -17
-140 147 -257 275 -197 47 22 386 354 419 410 27 47 35 110 20 163 -8 28 -287
312 -1351 1378 -738 739 -1353 1352 -1367 1362 -35 26 -95 38 -146 29z"/>
<path d="M2170 7075 c-19 -6 -46 -17 -60 -24 -44 -22 -1515 -1503 -1534 -1543
-24 -54 -28 -125 -9 -188 16 -54 46 -85 1797 -1838 980 -981 1801 -1798 1826
-1816 25 -18 59 -37 75 -41 54 -15 136 -7 185 18 50 26 114 102 126 151 13 57
7 131 -16 177 -16 32 -500 523 -1713 1736 l-1692 1693 652 652 c696 698 664
661 678 771 7 51 -22 133 -63 179 -63 70 -169 101 -252 73z"/>
<path d="M3344 6233 c-34 -11 -111 -83 -394 -366 -234 -233 -359 -365 -371
-391 -19 -44 -19 -128 1 -168 20 -39 2692 -2708 2732 -2729 45 -23 115 -25
166 -4 26 11 279 257 840 818 442 441 817 819 835 841 78 98 60 229 -42 296
-49 32 -142 37 -197 10 -24 -13 -315 -296 -778 -759 l-739 -738 -1177 1176
-1177 1176 266 267 c162 163 273 281 284 305 26 55 19 139 -16 192 -47 72
-148 104 -233 74z"/>
<path d="M8535 4220 c-16 -4 -47 -15 -69 -25 -25 -12 -550 -530 -1546 -1527
-830 -829 -1512 -1508 -1517 -1508 -5 0 -49 41 -98 91 -147 147 -204 172 -334
145 -39 -9 -99 -53 -131 -97 -51 -71 -58 -168 -17 -251 34 -70 414 -449 479
-478 59 -27 140 -26 201 3 69 32 3270 3230 3300 3297 56 126 9 263 -112 324
-51 26 -110 36 -156 26z"/>
</g>
</svg>
